<svg width="194" height="108" viewBox="0 0 194 108" fill="none" xmlns="http://www.w3.org/2000/svg">
<rect width="193.831" height="107.804" rx="15" fill="black"/>
<path d="M65.7527 91.6296V86.5932C65.7527 84.662 64.5771 83.4032 62.6479 83.4032C61.6347 83.4032 60.5503 83.74 59.7943 84.822C59.2067 83.898 58.3757 83.4032 57.109 83.4032C56.1524 83.362 55.2389 83.8036 54.677 84.5788V83.5656H53.082V91.6236H54.677V87.0128C54.677 85.5944 55.5161 84.9152 56.6916 84.9152C57.867 84.9152 58.5378 85.6712 58.5378 87.0128V91.6296H60.1327V87.0128C60.1327 85.5944 60.9719 84.9152 62.1475 84.9152C63.3227 84.9152 63.9935 85.6712 63.9935 87.0128V91.6296H65.7527ZM91.9415 83.6548H89.0027V81.2228H87.4119V83.6548H85.7335V85.0732H87.4119V88.8592C87.4119 90.7056 88.0827 91.798 90.0971 91.798C90.8603 91.782 91.6079 91.58 92.2759 91.21L91.7711 89.7916C91.3183 90.0744 90.7931 90.22 90.2591 90.2108C89.4203 90.2108 89.0007 89.7064 89.0007 88.8672V85.0084H91.9395V83.6648L91.9415 83.6548ZM106.882 83.4032C105.998 83.3836 105.169 83.83 104.699 84.5788V83.5656H103.104V91.6236H104.699V87.098C104.699 85.7544 105.37 84.9152 106.462 84.9152C106.831 84.9304 107.197 84.9868 107.553 85.0836L108.058 83.5716C107.673 83.4744 107.279 83.418 106.882 83.4032ZM84.3027 84.2424C83.4639 83.6548 82.2883 83.4032 81.0299 83.4032C79.0151 83.4032 77.7567 84.3276 77.7567 85.9224C77.7567 87.2664 78.6807 88.02 80.4419 88.2736L81.2811 88.3564C82.2051 88.5248 82.7931 88.8612 82.7931 89.2808C82.7931 89.8684 82.1223 90.294 80.8615 90.294C79.8991 90.314 78.9563 90.0192 78.1763 89.4552L77.3371 90.7136C78.5127 91.5528 79.9395 91.7268 80.7827 91.7268C83.1335 91.7268 84.3919 90.6364 84.3919 89.1248C84.3919 87.706 83.3787 87.0272 81.6215 86.7736L80.7827 86.6908C80.0267 86.6076 79.3639 86.3544 79.3639 85.8516C79.3639 85.264 80.0347 84.8384 80.9587 84.8384C81.9723 84.8384 82.9735 85.2576 83.4779 85.5092L84.3027 84.2424ZM108.645 87.6008C108.645 90.0328 110.24 91.798 112.842 91.798C114.018 91.798 114.857 91.5464 115.696 90.8736L114.857 89.6152C114.263 90.0964 113.524 90.3624 112.759 90.3712C111.341 90.3712 110.24 89.2808 110.24 87.6856C110.24 86.0908 111.326 85.0084 112.759 85.0084C113.524 85.0168 114.263 85.2832 114.857 85.7644L115.696 84.506C114.857 83.8352 114.018 83.5816 112.842 83.5816C110.323 83.4136 108.645 85.1768 108.645 87.6108V87.6008ZM97.3971 83.4032C95.0463 83.4032 93.4511 85.0816 93.4511 87.6008C93.4511 90.1196 95.1291 91.798 97.5635 91.798C98.7475 91.8228 99.9039 91.4376 100.836 90.7076L99.9975 89.532C99.3227 90.0548 98.4995 90.3484 97.6463 90.3712C96.5559 90.3712 95.3807 89.7004 95.2143 88.2736H101.175V87.6028C101.175 85.0836 99.6631 83.4032 97.3971 83.4032ZM97.3139 84.9152C98.4895 84.9152 99.3287 85.6712 99.4115 86.9296H95.0483C95.2995 85.7544 96.0615 84.9152 97.3139 84.9152ZM75.5739 87.6008V83.5716H73.9791V84.5848C73.3911 83.8288 72.5603 83.4096 71.3767 83.4096C69.1111 83.4096 67.4307 85.1728 67.4307 87.6068C67.4307 90.0408 69.1091 91.804 71.3767 91.804C72.5523 91.804 73.3911 91.3844 73.9791 90.6284V91.6416H75.5739V87.6008ZM69.1111 87.6008C69.1111 86.0888 70.0351 84.9152 71.6299 84.9152C73.1419 84.9152 74.0619 86.0908 74.0619 87.6008C74.0619 89.1956 73.0487 90.286 71.6299 90.286C70.0351 90.3692 69.1111 89.1104 69.1111 87.6008ZM131.143 83.4032C130.26 83.3836 129.43 83.83 128.96 84.5788V83.5656H127.366V91.6236H128.958V87.098C128.958 85.7544 129.629 84.9152 130.722 84.9152C131.09 84.9304 131.456 84.9868 131.812 85.0836L132.317 83.5716C131.932 83.4744 131.54 83.418 131.143 83.4032ZM124.932 87.6008V83.5716H123.336V84.5848C122.749 83.8288 121.918 83.4096 120.734 83.4096C118.468 83.4096 116.788 85.1728 116.788 87.6068C116.788 90.0408 118.466 91.804 120.734 91.804C121.91 91.804 122.749 91.3844 123.336 90.6284V91.6416H124.932V87.6008ZM118.468 87.6008C118.468 86.0888 119.393 84.9152 120.988 84.9152C122.5 84.9152 123.42 86.0908 123.42 87.6008C123.42 89.1956 122.406 90.286 120.988 90.286C119.393 90.3692 118.468 89.1104 118.468 87.6008ZM141.133 87.6008V80.3816H139.538V84.5788C138.95 83.8228 138.119 83.4032 136.936 83.4032C134.67 83.4032 132.99 85.1664 132.99 87.6008C132.99 90.0348 134.668 91.798 136.936 91.798C138.111 91.798 138.95 91.3784 139.538 90.6224V91.6356H141.133V87.6008ZM134.67 87.6008C134.67 86.0888 135.594 84.9152 137.189 84.9152C138.701 84.9152 139.621 86.0908 139.621 87.6008C139.621 89.1956 138.608 90.286 137.189 90.286C135.592 90.3712 134.67 89.1124 134.67 87.6008Z" fill="white"/>
<path d="M111.584 22.4635H82.457V69.9728H111.584V22.4635Z" fill="#FF5F00"/>
<path d="M85.3951 46.218C85.3971 36.9588 89.6331 28.2086 96.8943 22.4635C84.5059 12.7231 66.7115 14.1389 56.0193 25.7159C45.3269 37.2929 45.3269 55.1432 56.0193 66.7204C66.7115 78.2972 84.5059 79.7132 96.8943 69.9728C89.6331 64.2276 85.3971 55.4776 85.3951 46.218Z" fill="#EB001B"/>
<path d="M145.831 46.218C145.839 57.7796 139.243 68.3304 128.847 73.3868C118.449 78.4436 106.078 77.1176 96.9883 69.9728C104.251 64.2288 108.488 55.478 108.488 46.218C108.488 36.9582 104.251 28.2072 96.9883 22.4636C106.078 15.3186 118.449 13.9928 128.847 19.0494C139.243 24.106 145.839 34.6566 145.831 46.218Z" fill="#F79E1B"/>
</svg>
