<svg width="59" height="16" viewBox="0 0 59 16" fill="none" xmlns="http://www.w3.org/2000/svg">
<path fill-rule="evenodd" clip-rule="evenodd" d="M7.02704 0.126678H2.47239C2.16067 0.126678 1.89559 0.353712 1.8469 0.662401L0.00476199 12.375C-0.0317897 12.6063 0.146734 12.8144 0.380472 12.8144H2.55483C2.86649 12.8144 3.13159 12.5875 3.18028 12.2783L3.67711 9.11909C3.72497 8.80985 3.99062 8.58282 4.3018 8.58282H5.74359C8.74386 8.58282 10.4753 7.12668 10.9277 4.24157C11.1314 2.97923 10.9363 1.9875 10.3468 1.29288C9.69945 0.530125 8.55131 0.126678 7.02704 0.126678ZM7.55242 4.40461C7.30331 6.04351 6.05462 6.04351 4.84731 6.04351H4.15986L4.64207 2.98254C4.67076 2.79757 4.83048 2.6613 5.01711 2.6613H5.33214C6.15462 2.6613 6.93048 2.6613 7.33131 3.13151C7.57048 3.41192 7.64359 3.82875 7.55242 4.40461Z" fill="#28356A"/>
<path fill-rule="evenodd" clip-rule="evenodd" d="M20.7575 4.26319H18.5764C18.3906 4.26319 18.23 4.39947 18.2014 4.58444L18.1048 5.19616L17.9524 4.97451C17.4803 4.2872 16.4272 4.0574 15.3764 4.0574C12.9661 4.0574 10.9076 5.88816 10.5066 8.45616C10.2982 9.73713 10.5945 10.9621 11.3192 11.8163C11.9839 12.6017 12.9349 12.929 14.0664 12.929C16.0084 12.929 17.0851 11.6767 17.0851 11.6767L16.988 12.2846C16.9515 12.5168 17.13 12.7253 17.3624 12.7253H19.3269C19.6393 12.7253 19.9031 12.4982 19.9524 12.189L21.1312 4.70264C21.1684 4.47216 20.9905 4.26319 20.7575 4.26319ZM17.7171 8.52044C17.5068 9.76982 16.518 10.6087 15.2564 10.6087C14.6232 10.6087 14.1171 10.405 13.7919 10.0191C13.4695 9.63575 13.3472 9.09009 13.4495 8.48223C13.6462 7.24333 14.6517 6.37699 15.894 6.37699C16.5133 6.37699 17.0167 6.58361 17.3484 6.97271C17.6806 7.36609 17.8126 7.91519 17.7171 8.52044Z" fill="#28356A"/>
<path fill-rule="evenodd" clip-rule="evenodd" d="M32.206 4.45041H30.0141C29.805 4.45041 29.6086 4.55468 29.4901 4.72903L26.4671 9.19441L25.1857 4.90324C25.1051 4.63469 24.8581 4.45041 24.5784 4.45041H22.4247C22.1628 4.45041 21.9811 4.70696 22.0643 4.95413L24.4785 12.059L22.2089 15.2722C22.0304 15.5253 22.2101 15.8733 22.5185 15.8733H24.7076C24.9155 15.8733 25.1098 15.7717 25.2278 15.6009L32.5176 5.0482C32.6922 4.79579 32.5129 4.45041 32.206 4.45041Z" fill="#28356A"/>
<path fill-rule="evenodd" clip-rule="evenodd" d="M39.5132 0.126678H34.958C34.647 0.126678 34.3818 0.353712 34.3332 0.662401L32.4911 12.375C32.4545 12.6063 32.633 12.8144 32.8654 12.8144H35.2031C35.4201 12.8144 35.6058 12.6556 35.6398 12.4392L36.1627 9.11909C36.2105 8.80985 36.4765 8.58282 36.7874 8.58282H38.2286C41.2294 8.58282 42.9603 7.12668 43.4133 4.24157C43.6177 2.97923 43.4213 1.9875 42.8318 1.29288C42.185 0.530125 41.0376 0.126678 39.5132 0.126678ZM40.0387 4.40461C39.7903 6.04351 38.5414 6.04351 37.3334 6.04351H36.647L37.1297 2.98254C37.1583 2.79757 37.3167 2.6613 37.5039 2.6613H37.819C38.6407 2.6613 39.4173 2.6613 39.8181 3.13151C40.0573 3.41192 40.1299 3.82875 40.0387 4.40461Z" fill="#298FC2"/>
<path fill-rule="evenodd" clip-rule="evenodd" d="M53.2408 4.26319H51.061C50.874 4.26319 50.7148 4.39947 50.6868 4.58444L50.5902 5.19616L50.437 4.97451C49.9648 4.2872 48.9126 4.0574 47.8615 4.0574C45.4515 4.0574 43.3937 5.88816 42.9928 8.45616C42.785 9.73713 43.0799 10.9621 43.8044 11.8163C44.4706 12.6017 45.4202 12.929 46.5517 12.929C48.4937 12.929 49.5705 11.6767 49.5705 11.6767L49.4734 12.2846C49.4368 12.5168 49.6152 12.7253 49.849 12.7253H51.813C52.124 12.7253 52.389 12.4982 52.4377 12.189L53.6171 4.70264C53.6531 4.47216 53.4745 4.26319 53.2408 4.26319ZM50.2007 8.52044C49.9916 9.76982 49.0013 10.6087 47.7397 10.6087C47.1077 10.6087 46.6004 10.405 46.2752 10.0191C45.9531 9.63575 45.8317 9.09009 45.9329 8.48223C46.1308 7.24333 47.1351 6.37699 48.3773 6.37699C48.9966 6.37699 49.5 6.58361 49.8317 6.97271C50.1653 7.36609 50.2971 7.91519 50.2007 8.52044Z" fill="#298FC2"/>
<path fill-rule="evenodd" clip-rule="evenodd" d="M55.631 0.448607L53.7616 12.3755C53.7251 12.6068 53.9034 12.815 54.1358 12.815H56.0153C56.3277 12.815 56.5926 12.5881 56.6405 12.2788L58.4839 0.566816C58.5208 0.335643 58.3422 0.126678 58.1097 0.126678H56.0053C55.8195 0.12723 55.6597 0.263642 55.631 0.448607Z" fill="#298FC2"/>
</svg>
